HIERARCHY
ROOT newVegas:Hips
{
	OFFSET 0.000000 96.479958 0.000000
	CHANNELS 6 Xposition Yposition Zposition Xrotation Yrotation Zrotation
	JOINT newVegas:Pelvis
	{
		OFFSET 0.000000 0.000000 0.000000
		CHANNELS 3 Xrotation Yrotation Zrotation
		JOINT newVegas:LeftUpLeg
		{
			OFFSET 18.735201 -5.666702 -4.541200
			CHANNELS 3 Xrotation Yrotation Zrotation
			JOINT newVegas:LeftLeg
			{
				OFFSET -0.021200 -31.938179 0.493100
				CHANNELS 3 Xrotation Yrotation Zrotation
				JOINT newVegas:LeftFoot
				{
					OFFSET 0.021200 -31.938179 -4.336299
					CHANNELS 3 Xrotation Yrotation Zrotation
					JOINT newVegas:LeftToeBase
					{
						OFFSET 0.943001 -26.722000 15.023500
						CHANNELS 3 Xrotation Yrotation Zrotation
						End Site
						{
							OFFSET 0.000000 30.670183 0.000000
						}
					}
				}
				JOINT newVegas:Left_PantLeg
				{
					OFFSET 0.663870 -9.044666 -1.108900
					CHANNELS 3 Xrotation Yrotation Zrotation
					End Site
					{
						OFFSET 1.415995 20.635357 0.000000
					}
				}
			}
		}
		JOINT newVegas:RightUpLeg
		{
			OFFSET -18.735201 -5.666702 -4.541200
			CHANNELS 3 Xrotation Yrotation Zrotation
			JOINT newVegas:RightLeg
			{
				OFFSET 0.018946 -31.938133 0.493100
				CHANNELS 3 Xrotation Yrotation Zrotation
				JOINT newVegas:RightFoot
				{
					OFFSET -0.018946 -31.938126 -4.336299
					CHANNELS 3 Xrotation Yrotation Zrotation
					JOINT newVegas:RightToeBase
					{
						OFFSET -0.943001 -26.722004 15.023500
						CHANNELS 3 Xrotation Yrotation Zrotation
						End Site
						{
							OFFSET 0.000000 30.670187 0.000000
						}
					}
				}
				JOINT newVegas:Right_PantLeg
				{
					OFFSET -0.661674 -9.044716 -1.108900
					CHANNELS 3 Xrotation Yrotation Zrotation
					End Site
					{
						OFFSET -1.415958 20.635269 0.000000
					}
				}
			}
		}
	}
	JOINT newVegas:Spine
	{
		OFFSET 0.000000 10.199997 -0.299500
		CHANNELS 3 Xrotation Yrotation Zrotation
		JOINT newVegas:Spine1
		{
			OFFSET 0.000000 11.900002 -1.516600
			CHANNELS 3 Xrotation Yrotation Zrotation
			JOINT newVegas:Spine2
			{
				OFFSET 0.000000 13.600006 -2.842500
				CHANNELS 3 Xrotation Yrotation Zrotation
				JOINT newVegas:Neck
				{
					OFFSET 0.000000 9.624100 -2.890100
					CHANNELS 3 Xrotation Yrotation Zrotation
					JOINT newVegas:Head
					{
						OFFSET 0.000000 14.068802 -1.351900
						CHANNELS 3 Xrotation Yrotation Zrotation
						JOINT newVegas:Hair_Back
						{
							OFFSET 0.000000 3.231903 -17.524799
							CHANNELS 3 Xrotation Yrotation Zrotation
							End Site
							{
								OFFSET 0.000000 19.849884 0.000000
							}
						}
						JOINT newVegas:Hair_Front
						{
							OFFSET 0.000000 31.260406 4.573800
							CHANNELS 3 Xrotation Yrotation Zrotation
							JOINT newVegas:Hair_Front1
							{
								OFFSET 0.000000 2.284103 11.993300
								CHANNELS 3 Xrotation Yrotation Zrotation
								JOINT newVegas:Hair_Front2
								{
									OFFSET 0.000000 2.284103 11.993300
									CHANNELS 3 Xrotation Yrotation Zrotation
									End Site
									{
										OFFSET 0.000000 12.208862 0.000000
									}
								}
							}
						}
						JOINT newVegas:Jowel
						{
							OFFSET 0.000000 -7.458206 6.864100
							CHANNELS 3 Xrotation Yrotation Zrotation
							End Site
							{
								OFFSET 0.000000 19.849884 0.000000
							}
						}
					}
				}
				JOINT newVegas:LeftShoulder
				{
					OFFSET 15.263000 10.923401 -0.547700
					CHANNELS 3 Xrotation Yrotation Zrotation
					JOINT newVegas:LeftArm
					{
						OFFSET 25.438599 -2.830597 -13.032500
						CHANNELS 3 Xrotation Yrotation Zrotation
						JOINT newVegas:LeftForeArm
						{
							OFFSET 29.960503 0.000000 0.000000
							CHANNELS 3 Xrotation Yrotation Zrotation
							JOINT newVegas:LeftHand
							{
								OFFSET 27.849251 0.000000 0.000000
								CHANNELS 3 Xrotation Yrotation Zrotation
								JOINT newVegas:LeftHandThumb1
								{
									OFFSET 4.487587 -3.305161 6.305391
									CHANNELS 3 Xrotation Yrotation Zrotation
									JOINT newVegas:LeftHandThumb2
									{
										OFFSET 5.480453 -3.164139 3.164143
										CHANNELS 3 Xrotation Yrotation Zrotation
										JOINT newVegas:LeftHandThumb3
										{
											OFFSET 5.159721 -2.978973 2.978967
											CHANNELS 3 Xrotation Yrotation Zrotation
											End Site
											{
												OFFSET 2.494507 5.926697 1.738678
											}
										}
									}
								}
								JOINT newVegas:LeftHandIndex1
								{
									OFFSET 18.578728 -0.527832 5.208049
									CHANNELS 3 Xrotation Yrotation Zrotation
									JOINT newVegas:LeftHandIndex2
									{
										OFFSET 3.192009 0.000000 0.000000
										CHANNELS 3 Xrotation Yrotation Zrotation
										JOINT newVegas:LeftHandIndex3
										{
											OFFSET 3.835129 0.000000 0.000000
											CHANNELS 3 Xrotation Yrotation Zrotation
											End Site
											{
												OFFSET -0.034599 3.816971 0.371180
											}
										}
									}
								}
								JOINT newVegas:LeftHandMiddle1
								{
									OFFSET 18.476105 0.000000 0.000000
									CHANNELS 3 Xrotation Yrotation Zrotation
									JOINT newVegas:LeftHandMiddle2
									{
										OFFSET 3.324875 0.000000 0.000000
										CHANNELS 3 Xrotation Yrotation Zrotation
										JOINT newVegas:LeftHandMiddle3
										{
											OFFSET 4.596550 0.000000 0.000000
											CHANNELS 3 Xrotation Yrotation Zrotation
											End Site
											{
												OFFSET 0.057701 4.578827 0.399218
											}
										}
									}
								}
								JOINT newVegas:LeftHandRing1
								{
									OFFSET 17.732719 0.121887 -4.201567
									CHANNELS 3 Xrotation Yrotation Zrotation
									JOINT newVegas:LeftHandRing2
									{
										OFFSET 2.733170 0.000000 0.000000
										CHANNELS 3 Xrotation Yrotation Zrotation
										JOINT newVegas:LeftHandRing3
										{
											OFFSET 3.178268 0.000000 0.000000
											CHANNELS 3 Xrotation Yrotation Zrotation
											End Site
											{
												OFFSET 0.119102 3.170624 0.185394
											}
										}
									}
								}
								JOINT newVegas:LeftHandPinky1
								{
									OFFSET 15.989624 -0.606689 -7.535461
									CHANNELS 3 Xrotation Yrotation Zrotation
									JOINT newVegas:LeftHandPinky2
									{
										OFFSET 2.538986 0.000000 0.000000
										CHANNELS 3 Xrotation Yrotation Zrotation
										JOINT newVegas:LeftHandPinky3
										{
											OFFSET 2.593102 0.000000 0.000000
											CHANNELS 3 Xrotation Yrotation Zrotation
											End Site
											{
												OFFSET -0.150902 2.584198 0.152708
											}
										}
									}
								}
							}
							JOINT newVegas:Left_Sleeve
							{
								OFFSET 0.267448 -0.649796 0.577675
								CHANNELS 3 Xrotation Yrotation Zrotation
								End Site
								{
									OFFSET 0.000000 15.991241 0.000000
								}
							}
							JOINT newVegas:Left_CapeC
							{
								OFFSET 15.715958 -8.608795 -6.935905
								CHANNELS 3 Xrotation Yrotation Zrotation
								JOINT newVegas:Left_CapeC1
								{
									OFFSET 0.000000 -8.688499 0.000000
									CHANNELS 3 Xrotation Yrotation Zrotation
									End Site
									{
										OFFSET 0.000000 8.688499 0.000000
									}
								}
							}
						}
						JOINT newVegas:Left_CapeB
						{
							OFFSET 26.118385 -8.608795 -7.079235
							CHANNELS 3 Xrotation Yrotation Zrotation
							JOINT newVegas:Left_CapeB1
							{
								OFFSET 0.000000 -8.688499 0.000000
								CHANNELS 3 Xrotation Yrotation Zrotation
								End Site
								{
									OFFSET 0.000000 8.688499 0.000000
								}
							}
						}
						JOINT newVegas:Left_CapeA
						{
							OFFSET 5.115639 -8.608795 -10.395809
							CHANNELS 3 Xrotation Yrotation Zrotation
							JOINT newVegas:Left_CapeA1
							{
								OFFSET 0.000000 -8.688499 0.000000
								CHANNELS 3 Xrotation Yrotation Zrotation
								End Site
								{
									OFFSET 0.000000 8.688499 0.000000
								}
							}
						}
					}
				}
				JOINT newVegas:RightShoulder
				{
					OFFSET -15.263000 10.923401 -0.547700
					CHANNELS 3 Xrotation Yrotation Zrotation
					JOINT newVegas:RightArm
					{
						OFFSET -25.438599 -2.830597 -13.032500
						CHANNELS 3 Xrotation Yrotation Zrotation
						JOINT newVegas:RightForeArm
						{
							OFFSET -29.960503 0.000000 0.000000
							CHANNELS 3 Xrotation Yrotation Zrotation
							JOINT newVegas:RightHand
							{
								OFFSET -27.849251 0.000000 0.000000
								CHANNELS 3 Xrotation Yrotation Zrotation
								JOINT newVegas:RightHandThumb1
								{
									OFFSET -4.487587 -3.305161 6.305391
									CHANNELS 3 Xrotation Yrotation Zrotation
									JOINT newVegas:RightHandThumb2
									{
										OFFSET -5.480453 -3.164139 3.164143
										CHANNELS 3 Xrotation Yrotation Zrotation
										JOINT newVegas:RightHandThumb3
										{
											OFFSET -5.159721 -2.978973 2.978967
											CHANNELS 3 Xrotation Yrotation Zrotation
											End Site
											{
												OFFSET -2.494507 5.926697 1.738678
											}
										}
									}
								}
								JOINT newVegas:RightHandIndex1
								{
									OFFSET -18.578728 -0.527832 5.208049
									CHANNELS 3 Xrotation Yrotation Zrotation
									JOINT newVegas:RightHandIndex2
									{
										OFFSET -3.192009 0.000000 0.000000
										CHANNELS 3 Xrotation Yrotation Zrotation
										JOINT newVegas:RightHandIndex3
										{
											OFFSET -3.835129 0.000000 0.000000
											CHANNELS 3 Xrotation Yrotation Zrotation
											End Site
											{
												OFFSET 0.034599 3.816971 0.371180
											}
										}
									}
								}
								JOINT newVegas:RightHandMiddle1
								{
									OFFSET -18.476105 0.000000 0.000000
									CHANNELS 3 Xrotation Yrotation Zrotation
									JOINT newVegas:RightHandMiddle2
									{
										OFFSET -3.324875 0.000000 0.000000
										CHANNELS 3 Xrotation Yrotation Zrotation
										JOINT newVegas:RightHandMiddle3
										{
											OFFSET -4.596550 0.000000 0.000000
											CHANNELS 3 Xrotation Yrotation Zrotation
											End Site
											{
												OFFSET -0.057701 4.578827 0.399218
											}
										}
									}
								}
								JOINT newVegas:RightHandRing1
								{
									OFFSET -17.732719 0.121887 -4.201567
									CHANNELS 3 Xrotation Yrotation Zrotation
									JOINT newVegas:RightHandRing2
									{
										OFFSET -2.733170 0.000000 0.000000
										CHANNELS 3 Xrotation Yrotation Zrotation
										JOINT newVegas:RightHandRing3
										{
											OFFSET -3.178268 0.000000 0.000000
											CHANNELS 3 Xrotation Yrotation Zrotation
											End Site
											{
												OFFSET -0.119102 3.170624 0.185394
											}
										}
									}
								}
								JOINT newVegas:RightHandPinky1
								{
									OFFSET -15.989624 -0.606689 -7.535461
									CHANNELS 3 Xrotation Yrotation Zrotation
									JOINT newVegas:RightHandPinky2
									{
										OFFSET -2.538986 0.000000 0.000000
										CHANNELS 3 Xrotation Yrotation Zrotation
										JOINT newVegas:RightHandPinky3
										{
											OFFSET -2.593102 0.000000 0.000000
											CHANNELS 3 Xrotation Yrotation Zrotation
											End Site
											{
												OFFSET 0.150902 2.584198 0.152708
											}
										}
									}
								}
							}
							JOINT newVegas:Right_CapeC
							{
								OFFSET -15.715958 -8.608795 -6.935905
								CHANNELS 3 Xrotation Yrotation Zrotation
								JOINT newVegas:Right_CapeC1
								{
									OFFSET 0.000000 -8.688499 0.000000
									CHANNELS 3 Xrotation Yrotation Zrotation
									End Site
									{
										OFFSET 0.000000 8.688499 0.000000
									}
								}
							}
							JOINT newVegas:Right_Sleeve
							{
								OFFSET -0.267448 -0.649994 0.577675
								CHANNELS 3 Xrotation Yrotation Zrotation
								End Site
								{
									OFFSET 0.000000 15.991302 0.000000
								}
							}
						}
						JOINT newVegas:Right_CapeA
						{
							OFFSET -5.115540 -8.608795 -10.395824
							CHANNELS 3 Xrotation Yrotation Zrotation
							JOINT newVegas:Right_CapeA1
							{
								OFFSET 0.000000 -8.688499 0.000000
								CHANNELS 3 Xrotation Yrotation Zrotation
								End Site
								{
									OFFSET 0.000000 8.688499 0.000000
								}
							}
						}
						JOINT newVegas:Right_CapeB
						{
							OFFSET -26.118187 -8.608795 -7.079266
							CHANNELS 3 Xrotation Yrotation Zrotation
							JOINT newVegas:Right_CapeB1
							{
								OFFSET 0.000000 -8.688499 0.000000
								CHANNELS 3 Xrotation Yrotation Zrotation
								End Site
								{
									OFFSET 0.000000 8.688499 0.000000
								}
							}
						}
					}
				}
				JOINT newVegas:Left_Collar
				{
					OFFSET 18.625099 8.655502 8.828100
					CHANNELS 3 Xrotation Yrotation Zrotation
					JOINT newVegas:Left_Collar1
					{
						OFFSET 14.783401 10.540405 -1.259500
						CHANNELS 3 Xrotation Yrotation Zrotation
						End Site
						{
							OFFSET 0.000000 18.199875 0.000000
						}
					}
				}
				JOINT newVegas:Collar_Back
				{
					OFFSET 0.000000 15.630707 -20.132601
					CHANNELS 3 Xrotation Yrotation Zrotation
					End Site
					{
						OFFSET 0.000000 22.523010 0.000000
					}
				}
				JOINT newVegas:Left_Peck
				{
					OFFSET 17.239599 -5.132599 25.482599
					CHANNELS 3 Xrotation Yrotation Zrotation
					End Site
					{
						OFFSET 0.000000 22.523010 0.000000
					}
				}
				JOINT newVegas:Right_Peck
				{
					OFFSET -17.239599 -5.132202 25.482599
					CHANNELS 3 Xrotation Yrotation Zrotation
					End Site
					{
						OFFSET 0.000000 22.523010 0.000000
					}
				}
				JOINT newVegas:Right_Collar
				{
					OFFSET -18.625099 8.655792 8.828100
					CHANNELS 3 Xrotation Yrotation Zrotation
					JOINT newVegas:Right_Collar1
					{
						OFFSET -14.783401 10.539993 -1.259500
						CHANNELS 3 Xrotation Yrotation Zrotation
						End Site
						{
							OFFSET 0.000000 18.199631 0.000000
						}
					}
				}
			}
		}
		JOINT newVegas:Belly
		{
			OFFSET 0.000000 -6.540398 9.014299
			CHANNELS 3 Xrotation Yrotation Zrotation
			End Site
			{
				OFFSET 0.000000 11.566666 0.000000
			}
		}
	}
	JOINT newVegas:ElvisFacialAnim_Joint
	{
		OFFSET 1.000000 -95.330101 -8.825800
		CHANNELS 3 Xrotation Yrotation Zrotation
		End Site
		{
			OFFSET 0.000000 35.315800 0.000000
		}
	}
}
MOTION
Frames: 4
Frame Time: 0.033333
39.082191 59.491234 116.026894 -41.197956 -17.749319 67.761911 0.000002 0.000003 0.000001 -87.346993 -17.232608 29.892279 41.479151 4.240082 0.515945 21.641854 6.421622 25.017183 -0.000002 -0.000000 -0.000000 -0.000000 -0.000001 0.000003 -59.734212 -27.249905 -10.201068 99.583106 -7.798895 0.354268 16.622035 3.730836 28.727472 -0.000002 0.000001 0.000001 0.000001 -0.000000 -0.000000 7.001270 -2.309746 4.794401 2.010099 -0.237029 2.090221 2.001470 -0.229380 2.105781 3.579893 2.364783 -5.496309 3.579901 2.364790 -5.496304 0.000001 0.000002 -0.000001 3.579864 2.364777 -5.496303 3.579931 2.364808 -5.496284 -0.000001 -0.000003 -0.000001 0.000001 0.000002 -0.000003 1.179610 -1.812599 -0.855183 -47.431228 1.906431 -20.839616 -0.000009 -39.837905 -0.000019 42.967675 1.702353 55.869704 -7.220050 -16.942334 15.004566 8.794625 6.511423 5.542594 -0.000000 -0.000000 -0.000003 -1.733270 -2.965522 -17.643892 0.673198 2.728565 -27.714369 0.000005 -0.000001 0.000002 0.645961 4.940499 -30.246758 0.391299 2.107029 -21.039889 -0.000001 0.000000 0.000000 3.708526 9.022004 -37.868826 0.267220 1.750796 -17.354201 -0.000000 -0.000001 0.000000 6.648190 15.451650 -40.793762 0.458224 2.273201 -22.790437 0.000003 -0.000003 -0.000001 -0.000001 0.000001 -0.000000 -0.000001 0.000001 -0.000000 -0.000002 0.000001 -0.000000 -0.000002 0.000002 0.000000 -0.000002 0.000001 0.000000 -0.000002 0.000002 0.000000 -0.000002 0.000001 0.000001 0.691637 8.144808 6.824295 -3.056174 58.091804 45.294611 0.000059 66.595628 -0.000070 42.235311 20.981440 -38.820794 -29.910088 -9.421778 6.888342 15.739003 -8.312263 6.828506 0.000002 -0.000001 0.000001 -0.824956 -0.670484 19.906294 0.062416 -0.760734 9.380846 -0.000000 0.000000 -0.000000 -0.085126 -3.246450 28.997937 0.439065 -1.975817 25.054947 0.000002 0.000001 -0.000002 2.013898 -6.394663 37.961348 0.428969 -1.954082 24.760348 0.000001 -0.000001 0.000000 4.045679 -9.530746 34.346385 0.179181 -1.280720 15.928660 -0.000000 -0.000000 -0.000001 0.000001 0.000000 -0.000001 0.000001 0.000002 -0.000001 0.000001 0.000000 -0.000001 -0.000000 -0.000001 -0.000001 -0.000000 0.000000 -0.000003 -0.000000 -0.000001 -0.000001 -0.000000 -0.000000 -0.000001 -0.000000 -0.000002 0.000000 -0.000000 -0.000002 0.000000 -0.000000 -0.000002 0.000000 -0.000000 -0.000002 0.000000 -0.000000 -0.000002 0.000000 -0.000000 -0.000002 0.000000 -0.000000 -0.000002 0.000000 -0.000003 0.000004 0.000000 0.000002 0.000003 0.000001 
40.182709 56.392353 115.440796 -45.776092 -22.197729 71.822608 -0.000001 0.000003 0.000002 -86.178484 -15.325107 27.185746 40.255052 4.373185 0.405174 20.772195 5.697950 23.869418 -0.000001 0.000000 -0.000000 -0.000002 0.000003 -0.000001 -58.760268 -22.723008 -13.498458 94.811434 -4.838150 1.738401 17.979491 4.782049 29.509313 -0.000003 0.000001 0.000002 0.000000 0.000000 -0.000000 6.858355 -0.955939 1.985216 1.250354 0.152399 2.603903 1.239064 0.103257 2.611788 3.584473 2.143524 -5.027701 3.584485 2.143528 -5.027712 -0.000000 -0.000001 -0.000001 3.584435 2.143517 -5.027705 3.584491 2.143566 -5.027713 -0.000001 -0.000004 0.000002 -0.000000 -0.000001 -0.000000 3.377011 -5.653403 10.660497 -43.093532 -2.595394 -32.400146 0.000019 -40.457932 0.000019 42.701308 -4.087077 52.608969 -7.220049 -16.942334 15.004560 8.794626 6.511423 5.542593 0.000001 -0.000003 -0.000005 -1.733269 -2.965520 -17.643897 0.673200 2.728563 -27.714370 -0.000001 -0.000001 -0.000002 0.645958 4.940498 -30.246752 0.391295 2.107028 -21.039889 0.000001 0.000001 -0.000000 3.708522 9.022005 -37.868833 0.267225 1.750794 -17.354198 -0.000000 -0.000001 0.000003 6.648186 15.451647 -40.793762 0.458217 2.273196 -22.790437 -0.000004 -0.000003 -0.000001 -0.000000 -0.000001 -0.000000 -0.000000 -0.000001 -0.000000 -0.000001 -0.000001 0.000000 -0.000000 0.000001 0.000000 -0.000000 0.000000 -0.000000 -0.000000 0.000001 0.000000 -0.000002 0.000000 -0.000000 0.746914 8.238601 5.786854 9.213480 63.333277 46.739265 0.000073 65.354549 -0.000086 20.339931 42.196383 -25.641527 -29.793292 -9.267640 6.867250 15.739001 -8.312258 6.828506 0.000002 -0.000002 -0.000001 -0.842456 -0.589363 19.803884 0.062416 -0.760735 9.380847 0.000000 -0.000000 0.000003 -0.098084 -3.216520 28.878494 0.439689 -1.977157 25.073056 0.000000 0.000004 -0.000001 2.016947 -6.403912 37.842393 0.429111 -1.954378 24.764265 0.000003 -0.000003 0.000001 4.067176 -9.581392 34.233615 0.179288 -1.281067 15.933221 -0.000001 -0.000002 0.000000 -0.000002 0.000001 -0.000001 -0.000001 0.000001 -0.000002 -0.000001 0.000000 -0.000001 0.000000 -0.000001 0.000000 0.000001 0.000000 0.000000 0.000000 -0.000001 0.000000 0.000001 0.000000 0.000002 -0.000001 0.000001 -0.000001 -0.000001 0.000001 -0.000001 -0.000001 0.000001 -0.000001 -0.000001 0.000001 -0.000001 -0.000001 0.000001 -0.000001 -0.000001 0.000001 -0.000001 -0.000001 0.000001 -0.000001 -0.000000 -0.000000 0.000000 -0.000001 0.000003 0.000002 
40.602791 53.983582 114.696274 -51.038640 -26.052358 75.218421 0.000000 0.000002 0.000000 -84.469257 -12.698273 23.873531 39.882738 4.815367 0.403742 19.252857 5.235155 22.564128 -0.000002 -0.000000 0.000000 0.000001 0.000000 0.000002 -59.888499 -20.456645 -20.314767 92.735678 -5.659187 2.643740 23.860566 6.953302 29.463882 -0.000001 -0.000002 0.000001 -0.000000 -0.000001 -0.000001 7.289745 -1.233548 0.609829 1.109216 0.109600 2.564834 1.099106 0.053728 2.575562 3.510220 1.803323 -4.345336 3.510235 1.803336 -4.345363 -0.000001 0.000003 -0.000001 3.510223 1.803322 -4.345346 3.510266 1.803337 -4.345354 -0.000001 -0.000002 0.000003 -0.000001 0.000003 -0.000000 5.658737 -6.405388 24.998347 -43.174695 -6.870061 -43.783804 0.000001 -42.605887 -0.000001 36.718660 -10.143407 42.752350 -7.220044 -16.942334 15.004563 8.794624 6.511425 5.542595 0.000004 0.000001 -0.000003 -1.733261 -2.965520 -17.643893 0.673203 2.728568 -27.714375 -0.000000 0.000001 0.000004 0.645967 4.940497 -30.246758 0.391300 2.107025 -21.039889 0.000001 0.000000 0.000002 3.708531 9.022007 -37.868830 0.267224 1.750795 -17.354199 0.000001 0.000003 0.000001 6.648187 15.451650 -40.793762 0.458221 2.273199 -22.790437 -0.000000 -0.000005 -0.000001 -0.000000 0.000000 -0.000001 -0.000000 0.000000 -0.000001 -0.000001 0.000000 -0.000001 -0.000001 -0.000001 -0.000000 -0.000001 0.000000 -0.000000 -0.000001 -0.000001 -0.000000 -0.000003 0.000000 -0.000001 0.660026 7.740893 7.592283 12.383832 66.252207 48.800971 -0.000021 64.375872 0.000012 -1.130703 50.329410 -7.426574 -29.704527 -9.150298 6.850883 15.739008 -8.312257 6.828506 -0.000000 -0.000000 -0.000001 -0.756259 -0.492468 19.733043 0.062416 -0.760731 9.380847 0.000004 0.000001 0.000003 -0.107937 -3.193616 28.787232 0.440165 -1.978171 25.086887 -0.000002 0.000001 -0.000000 2.019260 -6.411003 37.751497 0.429202 -1.954588 24.767238 -0.000002 0.000001 -0.000000 4.083469 -9.620187 34.147418 0.179368 -1.281342 15.936684 -0.000002 0.000003 -0.000001 -0.000003 -0.000001 -0.000001 -0.000001 -0.000002 0.000000 -0.000003 -0.000000 0.000001 0.000000 0.000000 -0.000003 0.000001 0.000001 -0.000005 0.000000 0.000000 -0.000003 0.000001 0.000001 -0.000003 -0.000001 -0.000001 -0.000001 -0.000001 -0.000001 -0.000001 -0.000001 -0.000001 -0.000001 -0.000001 -0.000001 -0.000001 -0.000001 -0.000001 -0.000001 -0.000001 -0.000001 -0.000001 -0.000001 -0.000001 -0.000001 0.000001 0.000002 0.000000 0.000000 0.000002 0.000000 
40.421722 52.293495 113.577477 -56.822106 -29.078325 77.893178 0.000002 -0.000001 -0.000000 -82.206477 -9.449040 19.763060 40.171454 5.683837 0.511274 17.191637 4.986852 21.569061 0.000002 -0.000000 0.000000 0.000002 0.000001 -0.000000 -60.453758 -18.814060 -24.263938 90.975347 -5.576366 2.973930 26.950793 7.900282 29.944652 -0.000002 -0.000003 -0.000001 0.000001 0.000001 -0.000002 8.532910 -0.491846 -0.777237 2.056827 0.379866 2.469501 2.488487 0.321843 2.456346 3.362264 1.383286 -3.498592 3.362283 1.383290 -3.498583 -0.000001 -0.000000 0.000001 3.362289 1.383253 -3.498584 3.362229 1.383340 -3.498592 -0.000000 0.000002 0.000002 -0.000001 -0.000000 0.000001 8.287003 -9.078819 30.692599 -45.855916 -9.027475 -52.006969 -0.000002 -45.918832 0.000004 33.161590 -11.440824 37.383019 -7.220046 -16.942335 15.004566 8.794628 6.511421 5.542591 0.000002 0.000001 -0.000001 -1.733265 -2.965520 -17.643886 0.673199 2.728562 -27.714370 0.000002 -0.000004 -0.000002 0.645963 4.940497 -30.246755 0.391299 2.107032 -21.039887 -0.000001 -0.000004 -0.000000 3.708525 9.022008 -37.868833 0.267224 1.750798 -17.354199 0.000000 -0.000002 0.000000 6.648186 15.451650 -40.793762 0.458221 2.273198 -22.790439 0.000000 -0.000002 -0.000001 0.000002 0.000000 0.000001 0.000002 0.000000 0.000001 0.000001 0.000000 0.000001 -0.000005 -0.000001 0.000000 -0.000005 0.000000 0.000000 -0.000005 -0.000001 0.000000 -0.000006 -0.000000 0.000000 0.771670 7.820951 7.917900 5.648656 65.604548 53.029879 -0.000045 63.533593 0.000050 -3.881620 50.040394 -4.008184 -29.686181 -9.126080 6.847494 15.738994 -8.312259 6.828507 -0.000000 0.000002 0.000001 -0.738430 -0.472501 19.718394 0.062419 -0.760735 9.380851 0.000000 -0.000001 -0.000001 -0.109969 -3.188878 28.768357 0.440272 -1.978387 25.089764 0.000000 -0.000000 0.000000 2.019717 -6.412461 37.732683 0.429221 -1.954628 24.767856 -0.000001 0.000003 -0.000003 4.086831 -9.628229 34.129591 0.179397 -1.281399 15.937418 0.000001 0.000001 0.000001 0.000000 -0.000001 -0.000001 0.000001 0.000000 0.000001 0.000001 -0.000001 0.000002 0.000000 0.000001 -0.000001 0.000001 0.000002 -0.000002 0.000000 0.000001 -0.000001 0.000001 0.000002 -0.000001 -0.000001 -0.000001 -0.000000 -0.000001 -0.000001 -0.000000 -0.000001 -0.000001 -0.000000 -0.000001 -0.000001 -0.000000 -0.000001 -0.000001 -0.000000 -0.000001 -0.000001 -0.000000 -0.000001 -0.000001 -0.000000 -0.000000 0.000000 0.000001 0.000002 -0.000001 -0.000000 
